<?xml version="1.0" encoding="UTF-8" standalone="no"?>
<svg
   xmlns:dc="http://purl.org/dc/elements/1.1/"
   xmlns:cc="http://creativecommons.org/ns#"
   xmlns:rdf="http://www.w3.org/1999/02/22-rdf-syntax-ns#"
   xmlns:svg="http://www.w3.org/2000/svg"
   xmlns="http://www.w3.org/2000/svg"
   xmlns:sodipodi="http://sodipodi.sourceforge.net/DTD/sodipodi-0.dtd"
   xmlns:inkscape="http://www.inkscape.org/namespaces/inkscape"
   width="900"
   height="600"
   version="1.1"
   id="svg863"
   sodipodi:docname="Russian Olympic Committee flag.svg"
   inkscape:version="0.92.4 (5da689c313, 2019-01-14)">
  <metadata
     id="metadata869">
    <rdf:RDF>
      <cc:Work
         rdf:about="">
        <dc:format>image/svg+xml</dc:format>
        <dc:type
           rdf:resource="http://purl.org/dc/dcmitype/StillImage" />
      </cc:Work>
    </rdf:RDF>
  </metadata>
  <defs
     id="defs867" />
  <sodipodi:namedview
     pagecolor="#ffffff"
     bordercolor="#666666"
     borderopacity="1"
     objecttolerance="10"
     gridtolerance="10"
     guidetolerance="10"
     inkscape:pageopacity="0"
     inkscape:pageshadow="2"
     inkscape:window-width="1920"
     inkscape:window-height="1001"
     id="namedview865"
     showgrid="false"
     inkscape:zoom="0.95223713"
     inkscape:cx="366.50936"
     inkscape:cy="429.1439"
     inkscape:window-x="-9"
     inkscape:window-y="720"
     inkscape:window-maximized="1"
     inkscape:current-layer="text873" />
  <path
     d="M0 0h900v600H0z"
     id="path843"
     fill="#fff" />
  <g
     id="g861"
     style="fill:none;stroke:#000000;stroke-width:17.70000076"
     transform="matrix(0.45930285,0,0,0.45930285,243.31371,290.8131)">
    <circle
       cx="232.3"
       cy="253.5"
       r="91.599998"
       id="circle845"
       style="stroke:#0081c8" />
    <circle
       cx="450"
       cy="253.5"
       r="91.599998"
       id="circle847" />
    <circle
       cx="667.70001"
       cy="253.5"
       r="91.599998"
       id="circle849"
       style="stroke:#ee334e" />
    <circle
       cx="341.20001"
       cy="346.5"
       r="91.599998"
       id="circle851"
       style="stroke:#fcb131" />
    <circle
       cx="558.79999"
       cy="346.5"
       r="91.599998"
       id="circle853"
       style="stroke:#00a651" />
    <path
       d="m 305.6,198.5 a 91.6,91.6 0 0 1 0,109.9"
       id="path855"
       inkscape:connector-curvature="0"
       style="stroke:#0081c8" />
    <path
       d="m 523.3,198.5 a 91.6,91.6 0 0 1 0,109.9 M 450,345 a 91.6,91.6 0 0 1 -55,-18.3"
       id="path857"
       inkscape:connector-curvature="0" />
    <path
       d="m 667.7,345 a 91.6,91.6 0 0 1 -55,-18.3"
       id="path859"
       inkscape:connector-curvature="0"
       style="stroke:#ee334e" />
  </g>
  <g
     aria-label="ROC"
     style="font-style:normal;font-weight:normal;font-size:192px;line-height:1.25;font-family:sans-serif;letter-spacing:0px;word-spacing:0px;fill:#000000;fill-opacity:1;stroke:none"
     id="text873">
    <path
       d="M 369.28125,259.74863 H 345.1875 l -46.6875,-55.5 h -26.15625 v 55.5 h -18.5625 V 120.15488 H 292.875 q 12.65625,0 21.09375,1.6875 8.4375,1.59375 15.1875,5.8125 7.59375,4.78125 11.8125,12.09375 4.3125,7.21875 4.3125,18.375 0,15.09375 -7.59375,25.3125 -7.59375,10.125 -20.90625,15.28125 z M 325.875,159.43613 q 0,-6 -2.15625,-10.59375 -2.0625,-4.6875 -6.9375,-7.875 -4.03125,-2.71875 -9.5625,-3.75 -5.53125,-1.125 -13.03125,-1.125 h -21.84375 v 52.6875 h 18.75 q 8.8125,0 15.375,-1.5 6.5625,-1.59375 11.15625,-5.8125 4.21875,-3.9375 6.1875,-9 2.0625,-5.15625 2.0625,-13.03125 z"
       id="path875"
       inkscape:connector-curvature="0"
       style="fill:none;stroke:#0e4e9a;stroke-opacity:1;stroke-width:4.78110236;stroke-miterlimit:4;stroke-dasharray:none" />
    <path
       d="m 491.34375,136.18613 q 8.53125,9.375 13.03125,22.96875 4.59375,13.59375 4.59375,30.84375 0,17.25 -4.6875,30.9375 -4.59375,13.59375 -12.9375,22.6875 -8.625,9.46875 -20.4375,14.25 -11.71875,4.78125 -26.8125,4.78125 -14.71875,0 -26.8125,-4.875 -12,-4.875 -20.4375,-14.15625 -8.4375,-9.28125 -13.03125,-22.78125 -4.5,-13.5 -4.5,-30.84375 0,-17.0625 4.5,-30.5625 4.5,-13.59375 13.125,-23.25 8.25,-9.1875 20.4375,-14.0625 12.28125,-4.875 26.71875,-4.875 15,0 26.90625,4.96875 12,4.875 20.34375,13.96875 z m -1.6875,53.8125 q 0,-27.1875 -12.1875,-41.90625 -12.1875,-14.8125 -33.28125,-14.8125 -21.28125,0 -33.46875,14.8125 -12.09375,14.71875 -12.09375,41.90625 0,27.46875 12.375,42.09375 12.375,14.53125 33.1875,14.53125 20.8125,0 33.09375,-14.53125 12.375,-14.625 12.375,-42.09375 z"
       id="path877"
       inkscape:connector-curvature="0"
       style="fill:#0e4e9a;fill-opacity:1" />
    <path
       d="m 646.21875,249.62363 q -5.15625,2.25 -9.375,4.21875 -4.125,1.96875 -10.875,4.125 -5.71875,1.78125 -12.46875,3 -6.65625,1.3125 -14.71875,1.3125 -15.1875,0 -27.65625,-4.21875 -12.375,-4.3125 -21.5625,-13.40625 -9,-8.90625 -14.0625,-22.59375 -5.0625,-13.78125 -5.0625,-31.96875 0,-17.25 4.875,-30.84375 4.875,-13.59375 14.0625,-22.96875 8.90625,-9.09375 21.46875,-13.875 12.65625,-4.78125 28.03125,-4.78125 11.25,0 22.40625,2.71875 11.25,2.71875 24.9375,9.5625 v 22.03125 h -1.40625 q -11.53125,-9.65625 -22.875,-14.0625 -11.34375,-4.40625 -24.28125,-4.40625 -10.59375,0 -19.125,3.46875 -8.4375,3.375 -15.09375,10.59375 -6.46875,7.03125 -10.125,17.8125 -3.5625,10.6875 -3.5625,24.75 0,14.71875 3.9375,25.3125 4.03125,10.59375 10.3125,17.25 6.5625,6.9375 15.28125,10.3125 8.8125,3.28125 18.5625,3.28125 13.40625,0 25.125,-4.59375 11.71875,-4.59375 21.9375,-13.78125 h 1.3125 z"
       id="path879"
       inkscape:connector-curvature="0"
       style="fill:#f5333f;fill-opacity:1;stroke:none;stroke-opacity:1" />
  </g>
</svg>
